<?xml version="1.0" encoding="UTF-8"?>
<svg width="79px" height="25px" viewBox="0 0 79 25" version="1.1" xmlns="http://www.w3.org/2000/svg" xmlns:xlink="http://www.w3.org/1999/xlink">
    <!-- Generator: Sketch 63.1 (92452) - https://sketch.com -->
    <title>LABS</title>
    <desc>Created with Sketch.</desc>
    <g id="Symbols" stroke="none" stroke-width="1" fill="none" fill-rule="evenodd">
        <g id="lockups/labs" transform="translate(-214.000000, -42.000000)" fill="#000000">
            <path d="M228.886,66 L214.135,66 L214.135,42.636 L216.247,42.636 L216.247,64.02 L228.886,64.02 L228.886,66 Z M245.911,57.222 L241.126,45.144 L236.572,57.222 L245.911,57.222 Z M249.376,66 L246.637,59.07 L235.846,59.07 L233.239,66 L231.061,66 L240.07,42.636 L242.182,42.636 L251.554,66 L249.376,66 Z M263.068,66 L254.323,66 L254.323,42.636 L263.002,42.636 C268.909,42.636 271.384,44.715 271.384,48.51 C271.384,51.513 269.965,53.295 267.127,54.021 C270.262,54.714 271.879,56.397 271.879,59.565 C271.879,63.723 269.14,66 263.068,66 Z M263.035,44.418 L256.402,44.418 L256.402,53.163 L263.068,53.163 C267.061,53.163 269.305,51.81 269.305,48.675 C269.305,45.903 267.49,44.418 263.035,44.418 Z M263.002,54.912 L256.402,54.912 L256.402,64.152 L262.87,64.152 C267.721,64.152 269.734,62.502 269.734,59.433 C269.734,56.232 267.325,54.912 263.002,54.912 Z M283.888,66.462 C277.354,66.462 274.813,63.426 274.516,58.278 L276.76,58.278 C276.925,62.139 279.037,64.581 283.921,64.581 C288.442,64.581 290.422,62.205 290.422,59.664 C290.422,56.133 286.957,55.539 283.393,54.846 C279.532,54.12 275.473,53.295 275.473,48.576 C275.473,45.21 278.245,42.273 283.393,42.273 C288.805,42.273 291.808,44.946 292.072,49.17 L289.927,49.17 C289.696,45.969 287.485,44.088 283.393,44.088 C279.631,44.088 277.585,46.134 277.585,48.543 C277.585,51.876 280.951,52.437 284.515,53.097 C288.475,53.856 292.534,54.747 292.534,59.631 C292.534,63.393 289.597,66.462 283.888,66.462 Z" id="LABS"></path>
        </g>
    </g>
</svg>