<?xml version="1.0" encoding="UTF-8"?>
<svg width="170px" height="97px" viewBox="0 0 170 97" version="1.1" xmlns="http://www.w3.org/2000/svg" xmlns:xlink="http://www.w3.org/1999/xlink">
    <!-- Generator: Sketch 63.1 (92452) - https://sketch.com -->
    <title>logo-03</title>
    <desc>Created with Sketch.</desc>
    <g id="Symbols" stroke="none" stroke-width="1" fill="none" fill-rule="evenodd">
        <g id="lockups/labs">
            <g id="logo/03">
                <path d="M150.421801,84.7269961 C153.153584,84.7269961 154.599966,85.9357645 154.687697,88.0971464 L154.691943,88.3092776 L151.872038,88.3092776 C151.831754,87.3835195 151.388626,86.9810159 150.341232,86.9810159 C149.374408,86.9810159 149.011848,87.4237698 149.011848,87.9872748 C149.011848,88.7922819 150.059242,88.9532833 151.308057,89.2350358 C152.959716,89.597289 154.853081,90.1607939 154.893365,92.5758152 C154.893365,94.709084 153.402844,96.1580968 150.542654,96.1580968 C147.250224,96.0797717 146.093424,94.7440127 145.996194,92.2991166 L145.990521,92.092811 L148.93128,92.092811 L148.93128,92.1330613 C148.93128,93.1795705 149.454976,93.7430755 150.663507,93.7430755 C151.670616,93.7430755 152.113744,93.2600712 152.113744,92.6563159 C152.113744,91.7708081 150.985782,91.6098067 149.736967,91.3280542 C148.085308,90.965801 146.232227,90.4425464 146.232227,88.0677755 C146.232227,86.1357585 147.64218,84.7269961 150.421801,84.7269961 Z M159.808057,84.7269961 C162.53984,84.7269961 163.986222,85.9357645 164.073953,88.0971464 L164.078199,88.3092776 L161.258294,88.3092776 C161.218009,87.3835195 160.774882,86.9810159 159.727488,86.9810159 C158.760664,86.9810159 158.398104,87.4237698 158.398104,87.9872748 C158.398104,88.7922819 159.445498,88.9532833 160.694313,89.2350358 C162.345972,89.597289 164.239336,90.1607939 164.279621,92.5758152 C164.279621,94.709084 162.7891,96.1580968 159.92891,96.1580968 C156.63648,96.0797717 155.47968,94.7440127 155.38245,92.2991166 L155.376777,92.092811 L158.317536,92.092811 L158.317536,92.1330613 C158.317536,93.1795705 158.841232,93.7430755 160.049763,93.7430755 C161.056872,93.7430755 161.5,93.2600712 161.5,92.6563159 C161.5,91.7708081 160.372038,91.6098067 159.123223,91.3280542 C157.471564,90.965801 155.618483,90.4425464 155.618483,88.0677755 C155.618483,86.1357585 157.028436,84.7269961 159.808057,84.7269961 Z M67.556872,84.6867457 C70.3364929,84.6867457 72.3104265,86.3772606 72.3104265,89.8387911 L72.3104265,91.0060514 C72.3104265,94.4675819 70.3767773,96.1178464 67.556872,96.1178464 C64.535545,96.077596 62.8033175,94.4675819 62.8033175,91.0060514 L62.8033175,89.8387911 C62.8033175,86.417511 64.6966825,84.6867457 67.556872,84.6867457 Z M100.146919,84.6867457 C102.92654,84.6867457 104.900474,86.3772606 104.900474,89.8387911 L104.900474,91.0060514 C104.900474,94.4675819 102.966825,96.1178464 100.146919,96.1178464 C97.1255924,96.077596 95.3933649,94.4675819 95.3933649,91.0060514 L95.3933649,89.8387911 C95.3933649,86.417511 97.2867299,84.6867457 100.146919,84.6867457 Z M121.618483,84.6867457 C124.478673,84.6867457 126.009479,86.1357585 126.049763,88.8325322 L126.049763,88.913033 L123.189573,88.913033 C123.149289,87.8262734 122.706161,87.1822677 121.537915,87.1822677 C120.208531,87.1822677 119.64455,88.0275252 119.64455,89.8790415 L119.64455,90.965801 C119.64455,92.9783188 120.208531,93.6625748 121.49763,93.6625748 C122.585308,93.6625748 123.149289,92.897818 123.229858,91.9318095 L121.296209,91.9318095 L121.296209,90.0400429 L126.009479,90.0400429 L126.009479,95.9165946 L123.793839,95.9165946 L123.552133,93.3405719 C123.310427,94.8700854 122.424171,96.1178464 120.490521,96.1178464 C117.952607,96.1178464 116.78436,94.5883329 116.78436,91.0865521 L116.78436,89.7582904 C116.78436,86.3370103 118.637441,84.6867457 121.618483,84.6867457 Z M89.7938389,84.6867457 C92.6540284,84.6867457 94.3459716,86.0955081 94.507109,88.9532833 L94.507109,89.2752861 L91.5663507,89.2752861 L91.5663507,89.1142847 C91.485782,87.8262734 91.0023697,87.1822677 89.8341232,87.1822677 C88.5450237,87.1822677 87.9810427,88.0677755 87.9810427,89.9192918 L87.9810427,90.8853003 C87.9810427,92.6563159 88.5853081,93.5015734 89.8341232,93.5015734 C91.0023697,93.5015734 91.485782,92.8173173 91.6066351,91.4890556 L91.6066351,91.2878039 L94.5876777,91.2878039 L94.5876777,91.5695563 C94.4668246,94.6688336 92.7748815,96.077596 89.7535545,96.077596 C86.6516588,96.077596 85,94.5078322 85,91.1268024 L85,89.7582904 C85,86.3772606 86.8530806,84.6867457 89.7938389,84.6867457 Z M81.0118483,84.9282479 L81.0118483,87.4237698 L76.3388626,87.4237698 L76.3388626,89.5570386 L80.8104265,89.5570386 L80.8104265,92.0525606 L76.3388626,92.0525606 L76.3388626,95.8763443 L73.5995261,95.8763443 L73.5995261,84.9282479 L81.0118483,84.9282479 Z M145.184834,84.9282479 L145.184834,87.3030188 L140.229858,87.3030188 L140.229858,89.1545351 L144.701422,89.1545351 L144.701422,91.5695563 L140.229858,91.5695563 L140.229858,93.4210727 L145.345972,93.4210727 L145.345972,95.8763443 L137.490521,95.8763443 L137.490521,84.9282479 L145.184834,84.9282479 Z M131.93128,84.8879975 C135.033175,84.8879975 136.241706,86.2565096 136.241706,88.3092776 C136.241706,89.71804 135.677725,90.5632975 134.670616,91.0463017 C135.556872,91.4085549 136,92.1733117 136,93.5418237 L136,95.272589 C136,95.5543414 136.080569,95.7555932 136.241706,95.8763443 L133.341232,95.8763443 C133.180095,95.7555932 133.099526,95.5140911 133.099526,95.2323386 L133.099526,93.6223244 C133.099526,92.5355649 132.696682,92.213562 131.56872,92.213562 L130.239336,92.213562 L130.239336,95.8360939 L127.5,95.8360939 L127.5,84.8879975 L131.93128,84.8879975 Z M108.808057,84.8879975 L112.836493,91.3683046 L112.836493,84.8879975 L115.454976,84.8879975 L115.454976,95.8360939 L112.917062,95.8360939 L108.808057,89.2752861 L108.808057,95.8360939 L106.189573,95.8360939 L106.189573,84.8879975 L108.808057,84.8879975 Z M100.146919,87.1822677 C98.8578199,87.1822677 98.3341232,88.1482762 98.3341232,89.9192918 L98.3341232,90.8047996 C98.3341232,92.6160656 98.8578199,93.5418237 100.146919,93.5418237 C101.395735,93.5820741 101.959716,92.6965663 101.959716,90.84505 L101.959716,89.9595422 C101.959716,88.1080259 101.395735,87.1822677 100.146919,87.1822677 Z M67.556872,87.1822677 C66.2677725,87.1822677 65.7440758,88.1482762 65.7440758,89.9192918 L65.7440758,90.8047996 C65.7440758,92.6160656 66.2677725,93.5418237 67.556872,93.5418237 C68.8056872,93.5820741 69.3696682,92.6965663 69.3696682,90.84505 L69.3696682,89.9595422 C69.3696682,88.1080259 68.8056872,87.1822677 67.556872,87.1822677 Z M131.850711,87.2627684 L130.239336,87.2627684 L130.239336,89.7985408 L131.850711,89.7985408 C132.85782,89.7985408 133.381517,89.3155365 133.381517,88.5105294 C133.381517,87.7457727 132.938389,87.2627684 131.850711,87.2627684 Z M118.718009,72.0481344 L120.611374,75.9926692 L122.585308,72.0481344 L125.526066,72.0481344 L122.021327,78.810194 L122.021327,83.0364812 L119.120853,83.0364812 L119.120853,78.7296933 L115.736967,72.0481344 L118.718009,72.0481344 Z M80.528436,72.0481344 C83.5094787,72.0481344 84.7985782,73.0543933 84.7985782,74.9059096 C84.7985782,76.193921 84.3151659,76.9586777 83.4691943,77.4014316 C84.4763033,77.8039351 85.0805687,78.5284415 85.0805687,79.8567032 C85.0805687,81.9094713 83.7914692,83.0364812 81.0118483,83.0364812 L76.2582938,83.0364812 L76.2582938,72.0481344 L80.528436,72.0481344 Z M65.9454976,72.0481344 L65.9454976,80.2592067 L70.5379147,80.2592067 L70.5379147,82.9962309 L63.0853081,82.9962309 L63.0853081,72.0481344 L65.9454976,72.0481344 Z M90.5995261,72.0078841 C93.7014218,72.0078841 94.9099526,73.3763961 94.9099526,75.4291642 C94.9099526,76.8379266 94.3459716,77.6831841 93.3388626,78.1661883 C94.2251185,78.5284415 94.6682464,79.2931982 94.6682464,80.6617103 L94.6682464,82.3924755 C94.6682464,82.674228 94.7488152,82.8754798 94.9099526,82.9962309 L92.049763,82.9962309 C91.8886256,82.8754798 91.8080569,82.6339777 91.8080569,82.3522252 L91.8080569,80.742211 C91.8080569,79.6554514 91.4052133,79.3334486 90.2772512,79.3334486 L88.9075829,79.3334486 L88.9075829,82.9559805 L86.1682464,82.9559805 L86.1682464,72.0078841 L90.5995261,72.0078841 Z M102,72.0481344 L105.867299,82.9962309 L103.047393,82.9962309 L102.402844,81.0642138 L98.7369668,81.0642138 L98.1327014,82.9962309 L95.3127962,82.9962309 L99.1398104,72.0481344 L102,72.0481344 Z M111.063981,72.0078841 C114.165877,72.0078841 115.374408,73.3763961 115.374408,75.4291642 C115.374408,76.8379266 114.810427,77.6831841 113.803318,78.1661883 C114.689573,78.5284415 115.132701,79.2931982 115.132701,80.6617103 L115.132701,82.3924755 C115.132701,82.674228 115.21327,82.8754798 115.374408,82.9962309 L112.514218,82.9962309 C112.353081,82.8754798 112.272512,82.6339777 112.272512,82.3522252 L112.272512,80.742211 C112.272512,79.6554514 111.869668,79.3334486 110.741706,79.3334486 L109.372038,79.3334486 L109.372038,82.9559805 L106.632701,82.9559805 L106.632701,72.0078841 L111.063981,72.0078841 Z M74.6066351,72.0481344 L74.6066351,82.9962309 L71.7464455,82.9962309 L71.7464455,72.0481344 L74.6066351,72.0481344 Z M80.4881517,78.4076904 L78.9976303,78.4076904 L78.9976303,80.5812096 L80.4881517,80.5812096 C81.8175355,80.5812096 82.2203791,80.2189564 82.2203791,79.49445 C82.2203791,78.7699436 81.7772512,78.4076904 80.4881517,78.4076904 Z M100.549763,75.2279124 L99.4620853,78.810194 L101.677725,78.810194 L100.549763,75.2279124 Z M90.5189573,74.382655 L88.9075829,74.382655 L88.9075829,76.9184273 L90.5189573,76.9184273 C91.5260664,76.9184273 92.049763,76.4354231 92.049763,75.630416 C92.049763,74.8656593 91.6066351,74.382655 90.5189573,74.382655 Z M110.983412,74.382655 L109.372038,74.382655 L109.372038,76.9184273 L110.983412,76.9184273 C111.990521,76.9184273 112.514218,76.4354231 112.514218,75.630416 C112.514218,74.8656593 112.07109,74.382655 110.983412,74.382655 Z M80.6492891,74.2216536 L78.9976303,74.2216536 L78.9976303,76.314672 L80.6492891,76.314672 C81.6161137,76.314672 82.0995261,75.9926692 82.0995261,75.2279124 C82.0995261,74.5436564 81.6966825,74.2216536 80.6492891,74.2216536 Z" id="LIBRARY-OF-CONGRESS" fill="#F05129"></path>
                <path d="M81.3341232,0.36225319 C85.2819905,0.36225319 88.3838863,2.85777517 88.3838863,8.33182337 L88.3838863,23.9892112 C88.3838863,28.5375013 86.2488152,30.3487672 84.3554502,31.1537743 C86.2488152,31.9587814 88.5450237,33.8505481 88.5450237,37.3120786 L88.5450237,63.6760607 C88.5450237,65.0043224 88.7061611,66.0105813 89.0687204,66.6143366 L89.0687204,66.8960891 L77.8696682,66.8960891 C77.4265403,66.2520834 77.1445498,65.3665756 77.1445498,64.1188146 L77.1445498,39.2038452 C77.1445498,38.2378367 76.9834123,37.6743318 75.8957346,37.6743318 L75.0094787,37.6743318 L75.0094787,66.8155884 L63.7298578,66.8155884 L63.7298578,0.36225319 L81.3341232,0.36225319 Z M136.563981,0.36225319 C140.511848,0.36225319 143.613744,2.85777517 143.613744,8.33182337 L143.613744,23.9892112 C143.613744,28.5375013 141.478673,30.3487672 139.585308,31.1537743 C141.478673,31.9587814 143.774882,33.8505481 143.774882,37.3120786 L143.774882,63.6760607 C143.774882,65.0043224 143.936019,66.0105813 144.298578,66.6143366 L144.298578,66.8960891 L133.099526,66.8960891 C132.656398,66.2520834 132.374408,65.3665756 132.374408,64.1188146 L132.374408,39.2038452 C132.374408,38.2378367 132.21327,37.6743318 131.125592,37.6743318 L130.239336,37.6743318 L130.239336,66.8155884 L118.919431,66.8155884 L118.919431,0.36225319 L136.563981,0.36225319 Z M52.8127962,0.36225319 C57.3649289,0.36225319 60.3459716,2.69677375 60.3459716,8.77457727 L60.3459716,23.7477091 C60.3459716,28.2154985 57.4052133,30.2682665 55.9549763,30.7110204 C57.7274882,31.1537743 61.2322275,33.1260417 61.2322275,38.4793388 L61.2322275,56.7529998 C61.2322275,63.4748089 58.3720379,66.8558387 52.7322275,66.8558387 L35.6516588,66.8558387 L35.6516588,0.36225319 L52.8127962,0.36225319 Z M110.661137,0.36225319 L116.663507,66.8155884 L105.665877,66.8155884 L105.061611,54.8612331 L101.234597,54.8612331 L100.590047,66.8558387 L90.8412322,66.8558387 L96.3601896,0.36225319 L110.661137,0.36225319 Z M11.6421801,0.36225319 L11.7227488,56.3102459 L18.8933649,56.3102459 L18.8127962,66.8155884 L0.362559242,66.8155884 L0.362559242,0.36225319 L11.6421801,0.36225319 Z M32.7914692,0.36225319 L32.7914692,66.8155884 L21.4312796,66.8155884 L21.4312796,0.36225319 L32.7914692,0.36225319 Z M155.900474,0.36225319 L157.874408,23.3452056 L159.848341,0.36225319 L169.959716,0.36225319 L163.191943,40.652858 L163.191943,66.8155884 L151.912322,66.8155884 L151.912322,40.652858 L151.952607,40.652858 L144.620853,0.36225319 L155.900474,0.36225319 Z M48.0995261,35.9435665 L47.0118483,35.9435665 L47.0118483,58.1617622 L48.0995261,58.1617622 C49.2677725,58.1617622 49.42891,57.6385076 49.42891,56.4712473 L49.42891,37.7145821 C49.42891,36.3863204 49.1469194,35.9435665 48.0995261,35.9435665 Z M103.168246,19.8434247 L101.838863,45.1206473 L104.537915,45.1206473 L103.168246,19.8434247 Z M76.056872,8.73432691 L75.0900474,8.73432691 L75.0900474,28.1349978 L75.9763033,28.1349978 C76.7819905,28.1349978 77.2251185,27.6117431 77.2251185,26.6054843 L77.2251185,10.2638404 C77.2251185,9.17708081 77.063981,8.73432691 76.056872,8.73432691 Z M131.246445,8.73432691 L130.279621,8.73432691 L130.279621,28.1349978 L131.165877,28.1349978 C131.971564,28.1349978 132.414692,27.6117431 132.414692,26.6054843 L132.414692,10.2638404 C132.414692,9.17708081 132.253555,8.73432691 131.246445,8.73432691 Z M47.8175355,8.73432691 L47.0118483,8.73432691 L47.0118483,27.6922439 L47.8175355,27.6922439 C48.7037915,27.6922439 49.1469194,27.1689892 49.1469194,26.001729 L49.1469194,10.3443411 C49.1469194,9.17708081 48.985782,8.73432691 47.8175355,8.73432691 Z" id="LIBRARY" fill="#000000"></path>
            </g>
        </g>
    </g>
</svg>